<svg xmlns="http://www.w3.org/2000/svg" viewBox="0 0 512 512">
  <defs>
    <linearGradient id="bg" x1="0%" y1="0%" x2="100%" y2="100%">
      <stop offset="0%" style="stop-color:#1a237e"/>
      <stop offset="100%" style="stop-color:#3949ab"/>
    </linearGradient>
    <linearGradient id="evolution" x1="0%" y1="0%" x2="100%" y2="0%">
      <stop offset="0%" style="stop-color:#4fc3f7;stop-opacity:0.3"/>
      <stop offset="100%" style="stop-color:#4fc3f7;stop-opacity:0.8"/>
    </linearGradient>
  </defs>

  <!-- Content scaled to 80% and centered for macOS icon guidelines -->
  <g transform="translate(51.2, 51.2) scale(0.8)">

  <!-- Background -->
  <rect width="512" height="512" rx="80" fill="url(#bg)"/>

  <!-- Evolution gradient bar at bottom -->
  <rect x="60" y="420" width="392" height="32" rx="8" fill="url(#evolution)"/>

  <!-- Grid lines (subtle) -->
  <g stroke="#ffffff" stroke-opacity="0.1" stroke-width="1">
    <line x1="60" y1="140" x2="452" y2="140"/>
    <line x1="60" y1="220" x2="452" y2="220"/>
    <line x1="60" y1="300" x2="452" y2="300"/>
    <line x1="60" y1="380" x2="452" y2="380"/>
    <line x1="158" y1="80" x2="158" y2="400"/>
    <line x1="256" y1="80" x2="256" y2="400"/>
    <line x1="354" y1="80" x2="354" y2="400"/>
  </g>

  <!-- Value chain line (left) -->
  <line x1="50" y1="80" x2="50" y2="400" stroke="#4fc3f7" stroke-width="4" stroke-linecap="round"/>
  <polygon points="50,70 40,90 60,90" fill="#4fc3f7"/>

  <!-- Component connections -->
  <g stroke="#ffffff" stroke-width="3" stroke-opacity="0.6" fill="none">
    <path d="M140,120 L220,180 L340,160 L420,200"/>
    <path d="M220,180 L180,280"/>
    <path d="M340,160 L380,320"/>
    <path d="M180,280 L280,340 L380,320"/>
    <path d="M280,340 L320,380"/>
  </g>

  <!-- Components (nodes) -->
  <g fill="#ffffff">
    <!-- Genesis/Custom components (circles) -->
    <circle cx="140" cy="120" r="18"/>
    <circle cx="180" cy="280" r="18"/>

    <!-- Product components (circles) -->
    <circle cx="220" cy="180" r="18"/>
    <circle cx="280" cy="340" r="18"/>

    <!-- Commodity components (circles with fill) -->
    <circle cx="340" cy="160" r="18"/>
    <circle cx="380" cy="320" r="18"/>
    <circle cx="420" cy="200" r="18"/>
    <circle cx="320" cy="380" r="18"/>
  </g>

  <!-- Highlight some nodes with inner color -->
  <g fill="#4fc3f7">
    <circle cx="220" cy="180" r="8"/>
    <circle cx="380" cy="320" r="8"/>
  </g>

  <!-- "L" letter stylized -->
  <g fill="#ffffff" opacity="0.15">
    <rect x="80" y="60" width="20" height="100" rx="4"/>
    <rect x="80" y="140" width="60" height="20" rx="4"/>
  </g>

  </g><!-- End of macOS icon scaling group -->
</svg>
